<svg version="1.1" id="Layer_1" xmlns="http://www.w3.org/2000/svg" xmlns:xlink="http://www.w3.org/1999/xlink" x="0px" y="0px"
	 width="100%" viewBox="0 0 552 162" enable-background="new 0 0 552 162" xml:space="preserve">
<path fill="#756AB6" opacity="1.000000" stroke="none" 
	d="
M394.000000,163.000000 
	C264.166687,163.000000 134.833359,162.981110 5.500152,163.094238 
	C1.750778,163.097519 0.892609,162.250961 0.903158,158.499802 
	C1.047037,107.333549 1.043478,56.166641 0.902545,5.000367 
	C0.893111,1.575320 1.576101,0.903407 4.999956,0.905428 
	C186.333206,1.012463 367.666504,1.012455 548.999756,0.905468 
	C552.422974,0.903449 553.106873,1.574426 553.097473,5.000069 
	C552.956665,56.333008 552.956665,107.666573 553.097412,158.999496 
	C553.106812,162.424240 552.425720,163.106827 549.000000,163.097473 
	C497.500275,162.956757 446.000092,163.000000 394.000000,163.000000 
z"/>
<path fill="#571894" opacity="1.000000" stroke="none" 
	d="
M84.395187,110.351868 
	C78.311287,113.873589 72.544914,117.212303 66.770447,120.536949 
	C65.320770,121.371613 63.848278,122.311790 62.109669,121.310097 
	C57.636543,118.732933 53.171906,116.140747 48.721241,113.525017 
	C47.241863,112.655563 46.994316,111.180458 46.994057,109.620499 
	C46.992031,97.457466 47.014469,85.294319 46.958591,73.131523 
	C46.948254,70.881287 47.769047,69.345985 49.756191,68.283775 
	C52.252724,66.949295 54.708046,65.530220 57.118858,64.046440 
	C58.126797,63.426083 60.025879,62.977695 58.815063,61.201797 
	C57.881149,59.832027 56.461586,60.363987 55.231827,61.074936 
	C51.915134,62.992386 48.625896,64.959549 45.272621,66.810722 
	C42.907421,68.116425 43.043682,70.296692 43.042347,72.469170 
	C43.035679,83.299370 43.080921,94.130035 42.973644,104.959198 
	C42.959808,106.356316 44.033054,108.908035 41.529903,108.901405 
	C39.766098,108.896736 40.129639,106.541893 40.124046,105.124107 
	C40.078022,93.461029 40.160427,81.797081 40.049568,70.134872 
	C40.022171,67.252769 41.118946,65.462685 43.625046,64.189301 
	C46.145973,62.908371 48.562138,61.415325 50.984341,59.949356 
	C51.798359,59.456696 52.890724,58.880558 52.205154,57.643021 
	C51.675262,56.686501 50.750702,56.507565 49.625336,56.720726 
	C42.294067,58.109398 36.774120,64.749519 36.771931,72.276070 
	C36.769211,81.606705 36.805290,90.937607 36.736576,100.267746 
	C36.723923,101.986488 37.346111,103.981133 35.417763,105.348785 
	C33.041248,104.102966 33.900032,101.855858 33.882999,100.056007 
	C33.788406,90.059784 34.181232,80.045700 33.703541,70.071434 
	C33.427540,64.308556 35.169857,60.677319 40.434010,58.269131 
	C42.443127,57.350025 46.688114,56.068848 45.470551,53.999813 
	C43.751461,51.078529 40.930222,54.509884 38.643936,55.443226 
	C37.725830,55.818027 36.937630,56.514744 36.016567,56.877983 
	C31.430021,58.686798 29.674183,61.727276 29.898397,66.894073 
	C30.353056,77.371216 30.056019,87.882233 29.993465,98.378838 
	C29.986393,99.565620 30.627720,101.578758 28.818258,101.678253 
	C26.681442,101.795746 27.018942,99.652176 27.013697,98.264824 
	C26.967710,86.101982 26.986509,73.938881 26.994595,61.775860 
	C26.995491,60.427086 26.995525,58.925087 28.252802,58.153168 
	C33.075546,55.192184 37.953159,52.318748 42.852047,49.484814 
	C44.190746,48.710392 45.435711,49.513260 46.593521,50.179546 
	C56.989254,56.162045 67.321213,62.258736 77.799950,68.091873 
	C81.656593,70.238731 80.585236,73.639587 80.967522,76.829651 
	C81.284348,79.473518 79.793190,84.406128 82.119431,84.297348 
	C85.812454,84.124664 83.715927,79.505295 84.202736,76.821182 
	C85.368225,70.395042 82.787926,66.492401 76.803444,63.462830 
	C67.031654,58.515991 57.770416,52.560631 48.061775,46.895386 
	C49.701851,44.489281 51.342007,45.280945 52.906067,46.187088 
	C63.428604,52.283363 73.926949,58.421429 84.454773,64.508514 
	C86.408279,65.638016 87.192482,67.246880 87.153351,69.452225 
	C87.100182,72.449875 87.126953,75.451256 87.219704,78.447937 
	C87.252853,79.518990 87.007874,81.074211 88.777245,80.981216 
	C90.132774,80.909973 90.788193,79.754829 90.805756,78.517609 
	C90.867149,74.190392 90.926743,69.857094 90.756149,65.535217 
	C90.670990,63.377529 88.580811,62.763737 87.026833,61.867073 
	C77.503204,56.371815 67.949562,50.928272 58.452915,45.386959 
	C57.294277,44.710888 54.945545,44.134769 55.866169,42.400063 
	C56.983471,40.294754 58.836163,42.017178 60.150459,42.771877 
	C70.407364,48.661610 80.590515,54.680164 90.867271,60.534611 
	C93.198242,61.862507 94.163414,63.567604 94.053490,66.185959 
	C93.934807,69.012802 94.020645,71.850174 94.081985,74.681549 
	C94.102646,75.635010 93.975899,76.878876 95.251373,77.114479 
	C96.366951,77.320541 97.263527,76.520409 97.425171,75.491234 
	C98.152336,70.861420 98.247871,66.149208 97.472260,61.571075 
	C96.981865,58.676407 93.667549,58.070889 91.439308,56.762268 
	C82.533501,51.531967 73.529327,46.469357 64.600487,41.277744 
	C63.576363,40.682274 61.531528,40.258224 62.338451,38.619148 
	C63.065441,37.142437 64.741287,37.983196 65.884224,38.641281 
	C76.711449,44.875446 87.516556,51.147999 98.327003,57.411297 
	C98.470634,57.494514 98.608566,57.591686 98.736061,57.698044 
	C102.459724,60.804401 101.560982,77.653259 97.417381,80.097839 
	C87.374092,86.023064 77.239426,91.793221 67.177208,97.686691 
	C64.952621,98.989647 62.906097,99.233360 60.645123,97.799080 
	C58.396832,96.372833 56.064365,95.067543 53.700863,93.840050 
	C52.665218,93.302185 51.311905,91.802582 50.349331,93.645912 
	C49.556553,95.164085 51.010864,96.038521 52.156433,96.732422 
	C55.148560,98.544830 58.210247,100.245155 61.166615,102.112976 
	C63.592381,103.645576 65.572365,102.599258 67.653465,101.385139 
	C77.437370,95.677200 87.230553,89.984779 97.057083,84.350784 
	C98.068245,83.771049 99.397148,82.129768 100.446602,83.728386 
	C101.379105,85.148888 99.780403,86.113243 98.647774,86.775101 
	C87.716919,93.162575 76.759796,99.505112 65.824135,105.884399 
	C64.149139,106.861496 62.667904,106.465218 61.142529,105.559982 
	C58.850601,104.199814 56.576584,102.791740 54.190899,101.614990 
	C53.051414,101.052925 51.523090,99.192162 50.442741,101.340759 
	C49.578854,103.058868 51.341251,103.976440 52.608650,104.743553 
	C54.888187,106.123276 57.315865,107.276550 59.507637,108.778381 
	C62.292900,110.686882 64.695259,110.761246 67.722153,108.933067 
	C76.702660,103.509010 85.840553,98.338493 95.030380,93.274765 
	C96.629494,92.393623 98.801048,89.376442 100.344490,91.910835 
	C101.536133,93.867538 98.201546,94.783150 96.621750,95.718788 
	C87.018890,101.406143 77.261505,106.836090 67.729912,112.638161 
	C64.696091,114.484909 62.291122,114.422623 59.512905,112.496368 
	C57.465328,111.076691 55.236576,109.913246 53.057777,108.690468 
	C52.230831,108.226372 51.207520,107.400169 50.413795,108.488663 
	C49.775833,109.363533 50.233070,110.321022 50.959610,111.169754 
	C55.820232,116.847878 64.371048,118.460709 70.781029,114.780663 
	C79.304039,109.887505 87.778381,104.909477 96.310104,100.031708 
	C97.503242,99.349564 99.240341,97.645584 100.188454,99.150452 
	C101.463623,101.174454 98.912392,101.798538 97.640938,102.576012 
	C93.377930,105.182747 89.026993,107.645683 84.395187,110.351868 
z"/>
<path fill="#F2F1F8" opacity="1.000000" stroke="none" 
	d="
M171.758789,95.688171 
	C172.073898,97.466957 170.988312,99.387558 173.111191,99.927284 
	C174.434555,100.263741 175.435867,100.716705 174.967880,102.183067 
	C174.583664,103.386993 173.304764,103.010971 172.373993,103.022774 
	C168.948425,103.066216 165.521957,103.040016 161.770554,102.579231 
	C165.541214,100.005257 165.437912,96.445465 165.410095,92.812408 
	C165.336212,83.155197 165.411270,73.496918 165.364517,63.839371 
	C165.354126,61.690250 166.242981,58.873062 162.416626,58.888802 
	C161.674973,58.891853 161.252655,58.287720 161.325363,57.531532 
	C161.422073,56.525673 162.153107,56.118454 163.049240,56.122944 
	C165.256653,56.133999 167.221329,55.476852 169.264435,54.621601 
	C172.069305,53.447468 171.689545,55.944405 171.715286,57.438763 
	C171.800583,62.391449 171.747498,67.346519 171.747498,72.728622 
	C175.628357,71.570663 178.616867,69.670807 182.284927,69.891708 
	C187.670364,70.216042 190.596939,72.223541 191.940796,77.494576 
	C193.485168,83.552086 192.643738,89.757401 192.921570,95.894882 
	C192.983002,97.251907 192.107773,99.038139 193.972885,99.860626 
	C195.117111,100.365211 197.058228,100.208557 196.305618,102.161018 
	C195.726944,103.662292 193.967392,102.982964 192.724396,103.016350 
	C189.588882,103.100578 186.449615,103.044266 183.019791,103.044266 
	C189.006226,94.767654 186.753326,86.099915 185.580795,77.690979 
	C185.130051,74.458351 182.186615,72.539276 178.791229,73.316872 
	C175.447205,74.082710 171.777969,75.074532 171.773300,79.745331 
	C171.768127,84.907219 171.763092,90.069099 171.758789,95.688171 
z"/>
<path fill="#F2F1F8" opacity="1.000000" stroke="none" 
	d="
M292.385864,68.054268 
	C291.426788,64.467537 295.004242,59.693825 288.765533,58.428280 
	C287.600800,58.192013 288.408661,56.268978 289.823273,56.185169 
	C292.187073,56.045113 294.310364,55.417004 296.511688,54.526493 
	C298.882416,53.567448 298.689423,55.823616 298.717102,57.204052 
	C298.803833,61.530491 298.792664,65.859535 298.767975,70.187279 
	C298.756317,72.235619 299.414429,72.979813 301.416595,71.886246 
	C302.432892,71.331154 303.514618,70.856705 304.617706,70.505943 
	C312.296906,68.064079 317.911133,71.326927 319.322540,79.201492 
	C320.326538,84.802986 319.746155,90.493301 319.897919,96.143387 
	C319.943634,97.846107 319.260468,99.997177 322.168884,100.181335 
	C323.122528,100.241722 323.600281,100.987099 323.433411,101.942116 
	C323.241150,103.042427 322.271851,102.998299 321.478882,103.005402 
	C317.719757,103.039062 313.960236,103.020439 309.718292,103.020439 
	C313.797211,98.047516 315.069763,81.683189 312.188171,76.560738 
	C310.738342,73.983391 308.492065,72.553635 305.565552,73.347916 
	C302.562897,74.162880 299.022491,74.991844 298.860535,78.976166 
	C298.610565,85.125137 298.760712,91.291504 298.808472,97.449966 
	C298.814331,98.205414 299.007019,99.230431 299.512268,99.651260 
	C300.403168,100.393227 302.598389,100.017365 301.964966,101.979988 
	C301.358429,103.859352 299.414337,102.941544 298.070892,103.002678 
	C295.107056,103.137543 292.132812,103.044594 288.726471,102.661392 
	C293.331146,99.598808 292.356201,95.156685 292.375580,91.018295 
	C292.410675,83.527626 292.385681,76.036674 292.385864,68.054268 
z"/>
<path fill="#F5F4FA" opacity="1.000000" stroke="none" 
	d="
M395.687988,61.080566 
	C390.652740,61.890339 389.022797,65.026123 388.690887,69.269951 
	C388.604401,70.375954 388.552856,71.892052 386.872253,71.653526 
	C385.607300,71.473991 385.850708,70.172119 385.761322,69.212914 
	C384.769318,58.566475 385.217712,58.065681 395.769257,58.065773 
	C401.764282,58.065826 407.760468,58.002304 413.753540,58.110977 
	C415.276886,58.138599 417.348419,57.189625 418.212860,59.201157 
	C418.973816,60.971882 417.418579,62.293842 416.525513,63.644161 
	C408.726227,75.436989 400.902435,87.213623 392.441101,99.966980 
	C398.917847,99.959282 404.774597,100.874344 410.510895,99.378571 
	C413.853821,98.506889 415.242615,95.415031 415.798401,92.096260 
	C415.967590,91.086136 416.199188,90.051125 417.557587,90.168915 
	C419.064240,90.299568 418.661896,91.523865 418.753296,92.442673 
	C419.764069,102.606483 419.380554,103.035744 409.304260,103.035988 
	C402.643127,103.036140 395.981567,103.074783 389.321167,103.004707 
	C387.908722,102.989845 386.028748,103.753578 385.182648,102.222702 
	C384.264679,100.561905 385.534882,99.089279 386.544769,97.727249 
	C394.482849,87.021072 401.707855,75.830025 408.973877,64.667473 
	C409.578735,63.738293 410.096100,62.752190 411.084259,61.052792 
	C405.628784,61.052792 400.875732,61.052792 395.687988,61.080566 
z"/>
<path fill="#F4F3F9" opacity="1.000000" stroke="none" 
	d="
M255.327164,93.432755 
	C262.788788,102.478928 272.032593,103.265900 280.811859,95.928535 
	C281.741028,95.151970 282.594391,93.177910 283.970947,94.421570 
	C285.700989,95.984589 283.548676,97.026459 282.669922,97.946396 
	C276.676575,104.220589 265.382904,106.045013 257.181152,102.171852 
	C246.203140,96.987640 241.561859,83.404762 246.475525,70.841507 
	C250.833389,59.699383 262.067993,54.349785 273.793030,57.738678 
	C276.020905,58.382599 278.101685,60.001045 280.767883,58.174976 
	C282.109314,57.256207 283.588623,58.339310 283.566528,60.386272 
	C283.528900,63.879066 283.569824,67.372681 283.537781,70.865585 
	C283.528259,71.904251 283.307892,72.898582 281.939484,72.896004 
	C280.926178,72.894104 280.517517,72.198799 280.303802,71.337379 
	C280.143646,70.691956 280.045135,70.029068 279.852295,69.394272 
	C278.398193,64.607399 275.603058,60.981632 270.466400,60.105179 
	C264.625122,59.108494 259.375061,60.681053 255.997696,65.773788 
	C250.136444,74.612015 250.046051,83.831039 255.327164,93.432755 
z"/>
<path fill="#F4F3F9" opacity="1.000000" stroke="none" 
	d="
M130.745270,63.685680 
	C123.831848,71.684921 122.957863,80.545776 126.431015,89.666435 
	C130.918823,101.451584 143.617569,104.399658 153.341888,96.328346 
	C154.107620,95.692780 154.744461,94.890022 155.550156,94.318596 
	C156.102814,93.926628 156.888611,93.934303 157.280624,94.628304 
	C157.480286,94.981743 157.536835,95.643539 157.333679,95.952988 
	C156.792450,96.777405 156.128525,97.540741 155.420197,98.233040 
	C145.874161,107.563385 128.629639,105.646851 121.380585,94.464371 
	C115.853355,85.937973 116.494118,73.012535 122.846870,64.886116 
	C128.722351,57.370232 138.228485,54.932514 148.584381,58.289551 
	C149.530563,58.596264 150.781113,59.480747 151.365036,59.155079 
	C157.662384,55.642948 156.462952,60.477600 156.583496,63.760326 
	C156.662766,65.919823 156.633163,68.086868 156.555756,70.247070 
	C156.516846,71.333412 156.792587,72.782944 155.057785,72.873627 
	C153.423340,72.959061 153.478851,71.555946 153.106598,70.483452 
	C149.196930,59.219204 140.859360,56.565655 130.745270,63.685680 
z"/>
<path fill="#F2F1F8" opacity="1.000000" stroke="none" 
	d="
M492.613068,92.897774 
	C493.140656,95.931839 491.042786,99.326721 495.537598,100.639336 
	C496.865753,101.027206 496.175262,102.987595 494.253479,103.007713 
	C490.491455,103.047112 486.728699,103.019279 482.826691,103.019279 
	C488.407776,94.172585 486.751495,85.316368 484.663116,76.627342 
	C483.941467,73.625008 480.846497,72.472313 477.726105,73.427650 
	C474.720978,74.347672 471.571228,75.299149 471.608429,79.509628 
	C471.659882,85.330261 471.550079,91.152359 471.503784,96.973785 
	C471.495941,97.957581 471.279907,99.063927 472.268799,99.676521 
	C473.284149,100.305511 475.379700,100.020111 474.798981,101.958969 
	C474.227692,103.866371 472.278046,102.939598 470.947510,103.001266 
	C467.982727,103.138657 465.007202,103.044159 461.885712,103.044159 
	C467.735504,94.490807 464.377289,85.276047 465.118317,76.548470 
	C465.143646,76.250305 464.959534,75.913307 464.812744,75.625130 
	C464.102173,74.230240 459.272095,75.109741 462.022614,72.623878 
	C463.649597,71.153427 467.914886,68.849564 470.946869,71.188065 
	C472.630859,72.486877 473.454926,71.894691 474.812592,71.378983 
	C485.577545,67.289963 491.629761,71.049042 492.480927,82.442406 
	C492.728210,85.752487 492.580078,89.092110 492.613068,92.897774 
z"/>
<path fill="#F4F3F9" opacity="1.000000" stroke="none" 
	d="
M341.356689,85.127655 
	C345.105621,85.411163 346.742065,84.209335 346.273254,80.599792 
	C345.822327,77.127892 346.153564,73.190651 341.125122,72.994637 
	C337.871429,72.867805 334.526978,72.842026 334.851105,77.756119 
	C334.997986,79.983009 333.638306,81.229279 331.368134,80.835953 
	C329.035736,80.431839 328.717987,78.616013 328.963806,76.625732 
	C329.023560,76.141785 329.141968,75.610352 329.404724,75.214455 
	C332.990509,69.811699 338.521179,69.666466 344.091766,70.040466 
	C348.660156,70.347176 351.403229,73.075127 352.143097,77.549065 
	C353.153717,83.660255 352.433899,89.840172 352.581940,95.987732 
	C352.630402,97.999878 352.190033,100.133110 355.273132,100.191299 
	C356.225983,100.209282 356.710052,100.905777 356.634094,101.885109 
	C356.566895,102.751717 355.824371,103.050873 355.230225,102.929756 
	C347.894836,101.434532 340.740143,104.026192 333.495026,103.813744 
	C330.550415,103.727402 328.171906,101.787338 327.249176,98.792702 
	C326.228516,95.480370 327.104065,92.544151 329.658630,90.164825 
	C332.836151,87.205284 336.862305,86.147118 341.356689,85.127655 
z"/>
<path fill="#F6F5FA" opacity="1.000000" stroke="none" 
	d="
M425.793274,78.924515 
	C431.992981,69.334335 442.307648,67.039642 450.301331,73.169983 
	C457.980621,79.059212 458.884949,90.791359 452.261444,98.598572 
	C448.128784,103.469818 441.228210,105.453255 435.031372,103.405617 
	C428.557007,101.266266 424.864929,96.714157 423.980957,89.969101 
	C423.495697,86.266457 424.003296,82.665024 425.793274,78.924515 
z"/>
<path fill="#F5F4FA" opacity="1.000000" stroke="none" 
	d="
M517.768555,69.972816 
	C524.708862,71.104301 528.307800,74.380745 529.596191,80.147499 
	C530.316040,83.369400 529.856567,85.213051 525.867981,84.993462 
	C521.058472,84.728691 516.215454,85.101135 511.401428,84.880646 
	C508.118042,84.730247 507.317017,86.133102 507.740601,89.051254 
	C508.376831,93.434639 509.262939,97.680519 513.708618,99.890999 
	C518.199219,102.123848 522.055359,100.139511 525.860962,97.865974 
	C526.976929,97.199257 528.042297,94.831184 529.451782,96.671043 
	C530.609558,98.182320 528.512939,99.233673 527.488892,100.132278 
	C522.232300,104.744774 513.228638,105.431747 507.442383,101.770454 
	C501.540497,98.035995 498.750305,89.823715 500.832092,82.314423 
	C503.047394,74.323372 508.692352,70.102150 517.768555,69.972816 
z"/>
<path fill="#F2F1F8" opacity="1.000000" stroke="none" 
	d="
M223.114105,80.152985 
	C222.804337,77.227188 224.535110,73.815399 219.662598,73.686584 
	C217.928726,73.640747 217.818954,71.639496 219.493713,70.965500 
	C223.088547,69.518776 224.834396,66.653831 226.234970,63.374355 
	C226.589310,62.544685 227.185822,62.015526 228.140488,62.106903 
	C229.512390,62.238220 229.714020,63.371178 229.540176,64.301460 
	C228.377563,70.522881 231.686584,71.634178 236.844345,71.019325 
	C237.915283,70.891663 239.921982,70.202400 239.976181,72.269722 
	C240.039413,74.682137 237.892120,73.849472 236.588409,73.914139 
	C229.623276,74.259621 229.603241,74.226936 229.622635,81.400078 
	C229.634308,85.721252 229.463150,90.063431 229.825806,94.358040 
	C230.295578,99.921089 233.249084,101.153450 237.911209,98.102081 
	C238.889587,97.461746 239.731155,95.468140 241.153549,97.000015 
	C242.675797,98.639420 240.675995,99.683563 239.835632,100.670174 
	C236.929092,104.082489 233.038773,104.805794 228.950195,103.664368 
	C225.055023,102.576950 223.602081,99.201508 223.353516,95.581093 
	C223.012543,90.615120 223.170151,85.614906 223.114105,80.152985 
z"/>
<path fill="#F7F7FB" opacity="1.000000" stroke="none" 
	d="
M359.001831,72.318970 
	C362.371094,69.820656 365.484680,67.448830 366.779144,63.407581 
	C367.057495,62.538536 367.700165,62.043053 368.661255,62.140179 
	C370.152649,62.290901 370.048126,63.554924 369.873962,64.402596 
	C368.564514,70.775574 372.122223,71.547585 377.137146,71.040108 
	C378.346680,70.917709 380.581421,70.219734 380.522552,72.537674 
	C380.476074,74.368294 378.532013,73.796959 377.301147,73.901802 
	C376.309875,73.986237 375.288727,74.043304 374.310852,73.903046 
	C370.766571,73.394669 369.674988,74.910019 369.868866,78.373528 
	C370.156708,83.515892 369.708496,88.706528 370.117676,93.833199 
	C370.602081,99.901878 373.629395,101.168961 378.746948,97.875587 
	C379.636902,97.302856 380.381409,95.770058 381.637756,97.021843 
	C382.801666,98.181503 381.602783,99.158333 380.930847,100.018417 
	C378.050903,103.704948 374.139679,104.812431 369.788177,103.739075 
	C365.890747,102.777725 364.211304,99.598557 363.976837,95.872108 
	C363.674347,91.065315 363.526794,86.223389 363.749084,81.416786 
	C363.936462,77.365082 363.890808,73.800354 359.001831,72.318970 
z"/>
<path fill="#F5F5FA" opacity="1.000000" stroke="none" 
	d="
M204.530945,71.597214 
	C210.847229,69.557236 210.858261,69.557220 210.866104,75.582642 
	C210.874969,82.390366 210.845322,89.198181 210.871933,96.005806 
	C210.876877,97.270767 210.261581,98.790878 211.544418,99.699120 
	C212.607941,100.452095 215.125488,100.106033 214.056473,102.316460 
	C213.370316,103.735245 211.321854,102.965080 209.884735,103.007515 
	C206.984222,103.093193 204.079407,103.033043 200.874023,102.536285 
	C204.812866,100.022423 204.595230,96.327744 204.640579,92.764725 
	C204.695496,88.448273 204.699707,84.130219 204.648071,79.813782 
	C204.621796,77.616226 205.364609,74.914925 201.669037,74.762444 
	C200.716156,74.723129 200.207077,73.737030 200.599823,72.918114 
	C201.306961,71.443665 202.969330,72.151199 204.530945,71.597214 
z"/>
<path fill="#F4F3F9" opacity="1.000000" stroke="none" 
	d="
M205.255188,56.863174 
	C207.804337,55.416691 209.755905,55.754978 210.869080,58.168358 
	C211.682571,59.932011 211.452621,61.772621 209.878723,63.139889 
	C208.455688,64.376129 206.739441,64.485535 205.369293,63.274532 
	C203.314972,61.458855 203.378479,59.271072 205.255188,56.863174 
z"/>
<path fill="#7569B6" opacity="1.000000" stroke="none" 
	d="
M56.747536,67.719498 
	C59.732101,66.448082 61.894375,63.121357 65.114456,64.620995 
	C69.448067,66.639221 74.167419,68.500595 77.248779,72.245682 
	C80.033958,75.630783 77.760620,88.285011 74.394798,89.845055 
	C70.439217,91.678429 67.123077,96.198769 62.339321,94.687988 
	C57.998390,93.317062 53.267258,91.249840 50.673557,87.448303 
	C48.582302,84.383186 50.302998,79.967651 49.878941,76.193306 
	C49.309246,71.122704 53.256428,69.880371 56.747536,67.719498 
z"/>
<path fill="#786DB7" opacity="1.000000" stroke="none" 
	d="
M337.077820,89.973541 
	C337.876770,89.569595 338.298859,89.271217 338.766510,89.153000 
	C341.174866,88.544266 343.854187,86.591454 345.947510,89.117493 
	C347.718506,91.254509 345.940735,97.354836 343.503174,98.720428 
	C340.636719,100.326263 337.238495,101.381142 334.916992,98.603416 
	C332.431641,95.629631 333.510620,92.430611 337.077820,89.973541 
z"/>
<path fill="#786DB7" opacity="1.000000" stroke="none" 
	d="
M448.134277,95.662979 
	C446.509491,99.402115 444.192719,101.291458 440.268280,101.114922 
	C436.319885,100.937309 434.238098,98.522499 432.866699,95.359825 
	C430.455292,89.798660 430.158569,84.053658 432.443176,78.370621 
	C433.763794,75.085617 435.980103,72.937828 439.939331,72.868378 
	C443.930023,72.798370 446.150299,74.913475 447.511749,78.201042 
	C449.818146,83.770309 450.027069,89.495934 448.134277,95.662979 
z"/>
<path fill="#786DB8" opacity="1.000000" stroke="none" 
	d="
M518.499573,73.081772 
	C520.550171,73.832703 521.505676,75.146767 522.215881,76.699646 
	C524.078552,80.772743 523.369141,81.917679 518.890503,81.969009 
	C516.234924,81.999443 513.572632,81.860077 510.924194,82.000809 
	C507.846252,82.164360 507.635132,80.834976 508.617584,78.395844 
	C510.372955,74.037872 513.580322,72.411209 518.499573,73.081772 
z"/>
</svg>