<svg version="1.1" id="Layer_1" xmlns="http://www.w3.org/2000/svg" xmlns:xlink="http://www.w3.org/1999/xlink" x="0px" y="0px"
	 width="100%" viewBox="0 0 515 113" enable-background="new 0 0 515 113" xml:space="preserve">
<path fill="#2B0A45" opacity="1.000000" stroke="none" 
	d="
M376.000000,114.000000 
	C250.666702,114.000000 125.833405,114.000000 1.000084,114.000000 
	C1.000056,76.333382 1.000056,38.666763 1.000028,1.000109 
	C172.666565,1.000073 344.333130,1.000073 515.999756,1.000036 
	C515.999878,38.666553 515.999878,76.333107 515.999939,113.999832 
	C469.500000,114.000000 423.000000,114.000000 376.000000,114.000000 
M20.190542,87.659378 
	C20.760378,88.302513 21.330214,88.945641 21.900049,89.588776 
	C22.270287,89.493317 22.640526,89.397858 23.010763,89.302399 
	C23.010763,87.559074 23.010733,85.815742 23.010771,84.072418 
	C23.010992,73.573654 22.989002,63.074814 23.020967,52.576145 
	C23.036625,47.433350 33.710392,39.528511 38.703644,40.952213 
	C39.056377,41.052780 39.264725,41.659760 39.824543,42.414696 
	C36.833103,44.165085 34.095119,46.016575 31.145517,47.424831 
	C28.026478,48.913986 26.827721,51.036713 26.922735,54.513626 
	C27.136612,62.340187 27.780043,70.276993 26.801432,77.985199 
	C25.380732,89.175591 29.089773,96.249527 39.794964,100.154251 
	C42.703091,101.214996 44.725883,101.909073 47.540588,100.221443 
	C57.679756,94.142235 67.971764,88.318382 78.147461,82.299049 
	C79.296944,81.619087 80.074638,80.310593 81.024734,79.293556 
	C80.697289,78.886398 80.369843,78.479240 80.042404,78.072090 
	C78.220657,79.036400 76.364883,79.942032 74.583199,80.975403 
	C67.669121,84.985542 60.252697,88.363815 54.013237,93.243202 
	C46.319893,99.259560 39.817883,98.456444 32.984005,92.565842 
	C32.486267,92.136818 31.618521,91.993797 31.336628,91.487427 
	C30.749556,90.432854 30.439867,89.223869 30.016191,88.078346 
	C34.006435,89.206459 36.877045,91.293991 40.076817,92.527985 
	C42.126667,93.318497 45.150249,93.748344 46.899910,92.798050 
	C57.431675,87.077965 67.748383,80.957642 78.056366,74.835388 
	C79.299583,74.097015 80.056885,72.540489 81.039391,71.363159 
	C79.115959,71.090302 78.033150,71.501656 77.040222,72.070038 
	C67.068626,77.778191 57.109894,83.508858 47.151684,89.240387 
	C43.200527,91.514511 31.075373,85.931396 30.200237,81.399239 
	C30.153067,81.154953 30.489914,80.836517 30.987394,79.943069 
	C34.118362,81.673676 37.165615,83.608192 40.429131,85.054840 
	C42.027119,85.763199 44.474693,86.371429 45.774738,85.649994 
	C56.838680,79.510323 67.749435,73.091995 78.632507,66.633148 
	C79.687645,66.006950 80.245949,64.543602 81.034874,63.468853 
	C80.709900,63.181629 80.384926,62.894409 80.059952,62.607185 
	C69.292969,68.892776 58.532246,75.189133 47.756081,81.458946 
	C43.090611,84.173424 31.293596,78.652016 30.234655,73.261147 
	C30.198914,73.079193 30.621614,72.807182 31.105978,72.274101 
	C34.176220,74.051987 37.213020,76.092537 40.496956,77.591766 
	C42.110947,78.328606 44.630501,78.869598 45.976742,78.122818 
	C56.895676,72.066010 67.679214,65.758347 78.365707,59.298309 
	C79.629677,58.534233 80.639107,56.436817 80.763931,54.877224 
	C81.095268,50.737522 81.180328,46.521515 80.739609,42.402603 
	C80.545158,40.585323 79.264259,38.233490 77.752701,37.312798 
	C67.372803,30.990334 56.828266,24.934837 46.254078,18.939173 
	C45.037113,18.249144 43.310715,18.457579 41.820518,18.249441 
	C41.745644,18.684460 41.670773,19.119478 41.595901,19.554495 
	C50.527912,24.680065 59.134304,30.534418 68.488976,34.713997 
	C76.845619,38.447662 79.263939,44.037342 77.945053,52.317291 
	C77.815208,53.132481 78.183495,54.157009 77.809441,54.774982 
	C77.128418,55.900097 76.063736,56.792980 75.159142,57.782757 
	C74.009010,53.510067 74.359512,49.824726 73.870956,46.254189 
	C73.599632,44.271240 72.403305,41.705391 70.810394,40.727859 
	C60.452358,34.371387 49.893532,28.339201 39.326748,22.330441 
	C38.308525,21.751429 36.786987,22.057522 35.499096,21.952738 
	C36.075634,23.731289 36.817722,24.359390 37.646339,24.837551 
	C47.598118,30.580317 57.597935,36.240845 67.507065,42.056004 
	C71.616386,44.467545 72.697342,57.872635 69.168602,61.210335 
	C68.899391,61.464970 68.249962,61.317612 67.068451,61.416344 
	C67.068451,57.828423 66.873596,54.378830 67.123329,50.961727 
	C67.372322,47.554821 66.184952,45.408833 63.161972,43.712990 
	C52.996620,38.010372 42.984112,32.035587 32.832901,26.307095 
	C31.542616,25.578966 29.776733,25.693621 28.231188,25.417826 
	C28.113720,25.854836 27.996252,26.291843 27.878784,26.728853 
	C38.478302,32.916908 49.078300,39.104141 59.677120,45.293396 
	C64.423676,48.065182 66.188263,60.577843 62.428009,64.993645 
	C62.301853,65.141792 61.810440,64.978905 60.953411,64.931129 
	C60.953411,61.498791 60.754169,58.021557 61.010891,54.578320 
	C61.254993,51.304352 59.969872,49.336224 57.175789,47.766159 
	C47.159195,42.137604 37.258053,36.303829 27.253677,30.653135 
	C23.536324,28.553495 7.821959,36.289650 7.041183,40.468552 
	C6.980653,40.792530 6.999734,41.133366 6.999665,41.466370 
	C6.997109,53.798233 6.952729,66.130486 7.061026,78.461388 
	C7.072381,79.754295 7.986833,81.039268 8.482286,82.327927 
	C8.916714,82.224457 9.351141,82.120987 9.785567,82.017517 
	C9.860640,80.428902 9.997922,78.840401 10.000751,77.251656 
	C10.020042,66.419624 9.976203,55.587307 10.049316,44.755737 
	C10.060102,43.157894 10.034161,40.706921 10.960813,40.114765 
	C15.126206,37.452957 19.601444,35.262917 24.050755,33.077450 
	C24.529440,32.842327 25.565182,33.741291 26.984833,34.422298 
	C23.407375,36.614815 20.211607,38.142368 17.579384,40.343761 
	C15.926508,41.726105 14.146461,44.093491 14.092812,46.064381 
	C13.770975,57.887562 13.905216,69.724075 13.970512,81.555656 
	C13.978241,82.956062 14.496675,84.353653 14.778372,85.752548 
	C15.310935,85.714600 15.843497,85.676651 16.376060,85.638702 
	C16.545732,83.950729 16.855158,82.263359 16.862314,80.574692 
	C16.907518,69.909470 16.864000,59.243896 16.895813,48.578579 
	C16.910210,43.752373 26.925722,35.856091 31.650160,36.960964 
	C32.112083,37.068993 32.411327,37.872654 33.031281,38.667980 
	C30.067905,40.441338 27.505079,42.348644 24.652056,43.587822 
	C21.078259,45.140060 19.865728,47.410797 19.954210,51.318924 
	C20.221960,63.144920 20.073709,74.980331 20.190542,87.659378 
M172.203445,58.506329 
	C170.531906,55.977459 169.217117,51.701153 167.116837,51.272366 
	C162.289093,50.286747 157.078964,51.174206 151.549194,51.313400 
	C151.549194,46.480492 151.549194,40.414429 151.549194,33.923286 
	C147.585922,35.166721 144.227448,36.220413 140.868958,37.274101 
	C140.976715,37.715118 141.084473,38.156132 141.192230,38.597149 
	C142.559540,38.871895 143.926849,39.146645 145.393204,39.441292 
	C145.393204,50.915028 145.566025,62.203564 145.278549,73.480362 
	C145.201233,76.513176 143.724121,79.510307 142.850723,82.664169 
	C146.336487,82.664169 150.777557,82.664169 155.218613,82.664169 
	C148.355499,78.563278 152.827606,72.236809 151.821701,67.178436 
	C151.408081,65.098503 151.730316,62.867275 151.758987,60.705410 
	C151.815308,56.459332 154.685852,53.382225 159.202332,53.167278 
	C163.433777,52.965900 165.722168,55.552071 166.113892,59.480312 
	C166.557800,63.932163 166.856140,68.460732 166.532791,72.906120 
	C166.297546,76.140266 164.950317,79.293526 164.071442,82.585464 
	C167.543869,82.585464 172.089844,82.585464 176.635803,82.585464 
	C176.764984,82.183685 176.894165,81.781898 177.023346,81.380119 
	C175.674088,80.666534 174.324829,79.952950 172.389221,78.929260 
	C172.389221,72.609238 172.389221,65.974304 172.203445,58.506329 
M293.412323,76.992004 
	C292.318970,78.805977 291.225616,80.619949 289.966736,82.708557 
	C294.534027,82.708557 299.056610,82.708557 303.579163,82.708557 
	C303.736145,82.386131 303.893127,82.063705 304.050110,81.741287 
	C302.676819,80.849472 301.303528,79.957649 300.175049,79.224823 
	C299.858307,72.283974 299.983582,65.417374 299.113251,58.679375 
	C298.254639,52.032211 294.725647,49.494694 288.021088,50.055092 
	C284.993561,50.308151 282.053436,51.606930 278.398804,52.617966 
	C278.398804,46.441967 278.398804,40.284279 278.398804,33.960957 
	C274.378784,35.209381 271.114197,36.223198 267.849609,37.237019 
	C267.960205,37.650490 268.070801,38.063965 268.181366,38.477436 
	C269.629059,38.881035 271.076721,39.284637 272.393250,39.651676 
	C272.393250,51.012325 272.566437,62.015739 272.285339,73.007530 
	C272.203339,76.212402 270.825500,79.384125 270.027954,82.626556 
	C273.351013,82.626556 277.790894,82.626556 282.230774,82.626556 
	C276.075928,78.726540 279.422424,72.897026 278.803772,68.075172 
	C278.509277,65.779785 278.738861,63.415169 278.756805,61.082111 
	C278.792267,56.471844 281.699188,53.231800 286.346466,53.153263 
	C290.859833,53.076988 292.972229,56.015720 293.212189,60.138996 
	C293.521179,65.447601 293.431305,70.779427 293.412323,76.992004 
M371.706421,83.034363 
	C380.496643,83.034363 389.286865,83.034363 398.433655,83.034363 
	C398.433655,78.465027 398.433655,74.306656 398.433655,70.148293 
	C394.692749,73.298920 394.706055,79.856003 388.368774,80.000313 
	C383.170929,80.118683 377.968231,80.024445 372.412628,80.024445 
	C381.735687,65.948982 390.553406,52.636467 400.030487,38.328476 
	C387.641693,38.328476 377.074860,38.328476 366.249573,38.328476 
	C366.249573,42.993023 366.249573,47.426350 366.249573,51.859676 
	C366.707977,51.955273 367.166382,52.050865 367.624786,52.146461 
	C368.045441,50.622871 368.573822,49.119587 368.865692,47.571716 
	C369.609558,43.626965 371.831909,41.220497 375.901764,41.086433 
	C380.815704,40.924564 385.738983,41.048092 391.660889,41.048092 
	C383.087616,53.589825 375.024170,65.330956 367.042175,77.127190 
	C365.963226,78.721672 365.293304,80.592888 364.089691,83.034317 
	C367.153290,83.034317 368.966400,83.034317 371.706421,83.034363 
M260.953613,52.778214 
	C261.827545,52.219444 263.427826,51.698009 263.458801,51.095924 
	C263.677948,46.831898 263.575409,42.551342 263.575409,39.151093 
	C258.971985,38.372490 255.100937,37.423729 251.182053,37.143425 
	C247.744888,36.897583 244.094757,36.803474 240.814285,37.677128 
	C225.941208,41.638142 219.579483,61.505703 228.688599,74.900299 
	C236.402695,86.243584 254.354156,87.436218 263.462250,77.184792 
	C264.059204,76.512878 264.413086,75.624977 264.880066,74.837540 
	C264.596527,74.513283 264.312988,74.189034 264.029449,73.864777 
	C262.772369,74.718452 261.434174,75.474518 260.271057,76.441238 
	C250.913544,84.218719 238.778793,81.585327 233.756134,70.529610 
	C230.549545,63.471371 230.798569,56.246620 233.882034,49.244881 
	C236.932419,42.318275 242.666763,39.169182 249.858292,39.972187 
	C255.355515,40.586006 258.798462,44.549049 260.953613,52.778214 
M104.504349,42.998947 
	C93.824661,55.486320 95.810493,73.543472 108.468491,81.319725 
	C117.425690,86.822456 134.449463,83.776550 138.110764,73.169952 
	C135.792633,74.721260 134.455978,75.452591 133.307739,76.409904 
	C123.952850,84.209198 111.801460,81.611633 106.774109,70.562065 
	C103.483665,63.330017 103.779106,55.941330 107.077812,48.818733 
	C110.100960,42.291115 115.377419,39.329235 122.334572,39.978493 
	C128.762222,40.578335 131.710297,44.858036 133.232147,50.651997 
	C133.492310,51.642464 134.763901,52.367268 136.236252,53.918709 
	C136.236252,47.659733 136.236252,42.932106 136.236252,39.237385 
	C131.913086,38.450073 128.225754,37.576092 124.487335,37.141071 
	C117.324455,36.307568 110.509995,37.085861 104.504349,42.998947 
M451.641632,58.047073 
	C454.279022,56.388027 456.751617,54.076672 459.624756,53.350624 
	C461.019501,52.998173 464.439575,55.355999 464.757599,56.928719 
	C466.504211,65.565704 468.661591,74.432945 462.959137,82.635727 
	C467.259003,82.635727 471.747803,82.635727 476.236603,82.635727 
	C476.370300,82.248756 476.503998,81.861794 476.637695,81.474823 
	C475.317505,80.728874 473.997345,79.982918 472.567200,79.174820 
	C472.567200,73.758026 472.829254,68.259018 472.513641,62.793362 
	C471.816589,50.720482 464.804718,46.721573 453.836761,51.906792 
	C453.266968,52.176174 452.702454,52.456654 452.180237,52.710232 
	C450.751038,50.832462 442.662537,50.716675 441.461761,52.510689 
	C441.166595,52.951618 441.619629,54.432743 442.148743,54.763344 
	C443.005676,55.298759 444.210114,55.278030 445.247467,55.488003 
	C445.247467,59.348888 445.497467,62.865788 445.190399,66.333359 
	C444.698120,71.892792 447.497131,78.185844 440.961334,82.726151 
	C446.235016,82.726151 450.640991,82.726151 455.046997,82.726151 
	C455.197876,82.387306 455.348785,82.048470 455.499664,81.709625 
	C454.140137,80.781952 452.780609,79.854271 451.611542,79.056564 
	C451.611542,72.256638 451.611542,65.601173 451.641632,58.047073 
M324.885712,50.032581 
	C322.721130,50.026245 320.513062,49.742302 318.401306,50.073139 
	C314.385742,50.702229 310.299255,51.828083 309.138916,56.345116 
	C308.818024,57.594273 310.616272,59.387791 311.442200,60.931557 
	C312.602081,59.880215 314.819489,58.739471 314.739471,57.792938 
	C314.385101,53.600540 316.871033,53.183960 319.942871,52.917217 
	C323.340729,52.622166 325.528503,53.981098 325.945618,57.368866 
	C326.240784,59.765884 326.002808,62.228542 326.002808,64.181953 
	C321.786316,65.261848 317.812256,65.855347 314.179688,67.304733 
	C308.003204,69.769127 305.424042,74.788918 307.384125,79.359245 
	C309.175232,83.535553 315.371857,85.457130 320.953094,83.506897 
	C322.041626,83.126541 323.028137,82.463257 324.092590,82.001740 
	C324.795197,81.697113 325.614532,81.207726 326.275848,81.338005 
	C329.707581,82.014046 333.105316,82.862762 336.514893,83.651321 
	C336.736725,82.982346 336.958588,82.313370 337.180450,81.644394 
	C335.617615,80.790779 334.054779,79.937172 332.591003,79.137672 
	C332.591003,73.090279 332.652496,67.096626 332.571960,61.104870 
	C332.504883,56.113556 331.097107,51.862808 324.885712,50.032581 
M434.204346,57.431431 
	C430.522339,52.010448 425.458801,49.559082 418.872772,49.941036 
	C411.691772,50.357498 405.473419,56.133339 404.130859,63.933983 
	C402.661041,72.474182 406.341553,79.887001 413.553131,82.911057 
	C420.708557,85.911552 428.732941,83.731071 433.076172,77.429085 
	C437.291840,71.312195 437.963104,64.823860 434.204346,57.431431 
M486.515442,81.141129 
	C495.758514,86.520164 507.309814,84.121284 509.684570,75.888435 
	C506.116028,77.567940 502.946167,79.552635 499.491302,80.558167 
	C495.385101,81.753281 491.659698,80.064903 489.928314,76.171791 
	C488.454254,72.857224 488.009369,69.084953 486.961945,64.931381 
	C491.764740,64.931381 495.408051,64.931381 499.051331,64.931381 
	C502.622498,64.931381 506.193634,64.931381 509.851685,64.931381 
	C509.977173,58.337090 508.056641,53.514286 502.519501,51.114021 
	C496.928131,48.690247 491.397705,49.439426 486.574219,53.303867 
	C478.228790,59.990036 477.984772,72.457710 486.515442,81.141129 
M221.535110,77.076714 
	C220.330231,77.412399 218.941208,77.471710 217.951874,78.130882 
	C213.304855,81.227081 210.157867,80.055199 209.847504,74.488182 
	C209.472946,67.769836 209.758789,61.014675 209.758789,54.700241 
	C213.314392,52.593620 217.780777,55.888569 221.396957,51.032150 
	C216.748154,51.032150 213.344696,51.032150 209.803085,51.032150 
	C209.658279,47.785259 209.535873,45.040562 209.413467,42.295868 
	C208.952698,42.039055 208.491928,41.782238 208.031158,41.525421 
	C206.674973,43.560024 205.526596,45.782093 203.906265,47.578426 
	C202.159561,49.514847 199.970963,51.052662 197.107483,53.508541 
	C200.079727,53.860607 201.499832,54.028824 203.117752,54.220467 
	C203.117752,55.940575 203.113602,57.412315 203.118530,58.884018 
	C203.136307,64.200966 202.884491,69.536316 203.241806,74.830475 
	C203.755051,82.434921 209.478271,86.315117 215.907288,83.306999 
	C218.251434,82.210167 219.892365,79.610390 221.535110,77.076714 
M354.430817,53.922661 
	C356.619476,53.658630 358.808136,53.394600 360.996796,53.130566 
	C360.922852,52.434002 360.848907,51.737434 360.774963,51.040871 
	C357.227844,51.040871 353.680725,51.040871 349.770630,51.040871 
	C349.770630,47.680420 349.770630,44.941795 349.770630,40.748882 
	C345.514648,45.539219 342.154205,49.321575 338.535706,53.394382 
	C340.716736,53.843033 342.258301,54.160141 343.898346,54.497505 
	C343.898346,61.791943 343.673615,68.791985 343.980957,75.768585 
	C344.171143,80.084686 346.251923,83.439964 351.118256,83.996460 
	C355.976440,84.552017 360.435364,82.152649 362.116425,78.022141 
	C362.269562,77.645920 361.681549,76.968040 361.369690,76.280266 
	C360.697968,76.544197 360.280304,76.716026 359.857208,76.873260 
	C357.532715,77.737038 354.531097,79.891441 353.057404,79.121910 
	C351.324921,78.217255 350.274323,74.828865 350.069275,72.420418 
	C349.632751,67.293045 350.110748,62.094460 349.865601,56.941631 
	C349.721436,53.911003 351.264862,53.695724 354.430817,53.922661 
M190.865829,63.511684 
	C190.865829,59.091434 190.865829,54.671185 190.865829,49.765022 
	C186.886932,50.856979 183.554565,51.771503 180.222214,52.686024 
	C180.165863,53.092365 180.109528,53.498707 180.053192,53.905048 
	C181.513672,54.477615 182.974167,55.050182 184.661667,55.711742 
	C184.661667,61.575531 184.953171,67.547050 184.541260,73.469643 
	C184.328552,76.527985 182.866379,79.499428 181.922073,82.666626 
	C185.476212,82.666626 189.939697,82.666626 194.403183,82.666626 
	C194.555420,82.340118 194.707642,82.013618 194.859879,81.687111 
	C193.492157,80.789803 192.124451,79.892487 190.865829,79.066750 
	C190.865829,74.123848 190.865829,69.314499 190.865829,63.511684 
M188.256577,43.999722 
	C191.300583,43.052193 191.982117,40.729290 190.834930,38.231873 
	C190.331039,37.134895 188.214844,36.004417 187.051041,36.200027 
	C185.861420,36.399982 183.882629,38.559444 184.109818,39.240089 
	C184.703293,41.018021 186.313599,42.456532 188.256577,43.999722 
z"/>
<path fill="#51108C" opacity="1.000000" stroke="none" 
	d="
M20.139055,87.235733 
	C20.073709,74.980331 20.221960,63.144920 19.954210,51.318924 
	C19.865728,47.410797 21.078259,45.140060 24.652056,43.587822 
	C27.505079,42.348644 30.067905,40.441338 33.031281,38.667980 
	C32.411327,37.872654 32.112083,37.068993 31.650160,36.960964 
	C26.925722,35.856091 16.910210,43.752373 16.895813,48.578579 
	C16.864000,59.243896 16.907518,69.909470 16.862314,80.574692 
	C16.855158,82.263359 16.545732,83.950729 16.376060,85.638702 
	C15.843497,85.676651 15.310935,85.714600 14.778372,85.752548 
	C14.496675,84.353653 13.978241,82.956062 13.970512,81.555656 
	C13.905216,69.724075 13.770975,57.887562 14.092812,46.064381 
	C14.146461,44.093491 15.926508,41.726105 17.579384,40.343761 
	C20.211607,38.142368 23.407375,36.614815 26.984833,34.422298 
	C25.565182,33.741291 24.529440,32.842327 24.050755,33.077450 
	C19.601444,35.262917 15.126206,37.452957 10.960813,40.114765 
	C10.034161,40.706921 10.060102,43.157894 10.049316,44.755737 
	C9.976203,55.587307 10.020042,66.419624 10.000751,77.251656 
	C9.997922,78.840401 9.860640,80.428902 9.785567,82.017517 
	C9.351141,82.120987 8.916714,82.224457 8.482286,82.327927 
	C7.986833,81.039268 7.072381,79.754295 7.061026,78.461388 
	C6.952729,66.130486 6.997109,53.798233 6.999665,41.466370 
	C6.999734,41.133366 6.980653,40.792530 7.041183,40.468552 
	C7.821959,36.289650 23.536324,28.553495 27.253677,30.653135 
	C37.258053,36.303829 47.159195,42.137604 57.175789,47.766159 
	C59.969872,49.336224 61.254993,51.304352 61.010891,54.578320 
	C60.754169,58.021557 60.953411,61.498791 60.953411,64.931129 
	C61.810440,64.978905 62.301853,65.141792 62.428009,64.993645 
	C66.188263,60.577843 64.423676,48.065182 59.677120,45.293396 
	C49.078300,39.104141 38.478302,32.916908 27.878784,26.728853 
	C27.996252,26.291843 28.113720,25.854836 28.231188,25.417826 
	C29.776733,25.693621 31.542616,25.578966 32.832901,26.307095 
	C42.984112,32.035587 52.996620,38.010372 63.161972,43.712990 
	C66.184952,45.408833 67.372322,47.554821 67.123329,50.961727 
	C66.873596,54.378830 67.068451,57.828423 67.068451,61.416344 
	C68.249962,61.317612 68.899391,61.464970 69.168602,61.210335 
	C72.697342,57.872635 71.616386,44.467545 67.507065,42.056004 
	C57.597935,36.240845 47.598118,30.580317 37.646339,24.837551 
	C36.817722,24.359390 36.075634,23.731289 35.499096,21.952738 
	C36.786987,22.057522 38.308525,21.751429 39.326748,22.330441 
	C49.893532,28.339201 60.452358,34.371387 70.810394,40.727859 
	C72.403305,41.705391 73.599632,44.271240 73.870956,46.254189 
	C74.359512,49.824726 74.009010,53.510067 75.159142,57.782757 
	C76.063736,56.792980 77.128418,55.900097 77.809441,54.774982 
	C78.183495,54.157009 77.815208,53.132481 77.945053,52.317291 
	C79.263939,44.037342 76.845619,38.447662 68.488976,34.713997 
	C59.134304,30.534418 50.527912,24.680065 41.595901,19.554495 
	C41.670773,19.119478 41.745644,18.684460 41.820518,18.249441 
	C43.310715,18.457579 45.037113,18.249144 46.254078,18.939173 
	C56.828266,24.934837 67.372803,30.990334 77.752701,37.312798 
	C79.264259,38.233490 80.545158,40.585323 80.739609,42.402603 
	C81.180328,46.521515 81.095268,50.737522 80.763931,54.877224 
	C80.639107,56.436817 79.629677,58.534233 78.365707,59.298309 
	C67.679214,65.758347 56.895676,72.066010 45.976742,78.122818 
	C44.630501,78.869598 42.110947,78.328606 40.496956,77.591766 
	C37.213020,76.092537 34.176220,74.051987 31.105978,72.274101 
	C30.621614,72.807182 30.198914,73.079193 30.234655,73.261147 
	C31.293596,78.652016 43.090611,84.173424 47.756081,81.458946 
	C58.532246,75.189133 69.292969,68.892776 80.059952,62.607185 
	C80.384926,62.894409 80.709900,63.181629 81.034874,63.468853 
	C80.245949,64.543602 79.687645,66.006950 78.632507,66.633148 
	C67.749435,73.091995 56.838680,79.510323 45.774738,85.649994 
	C44.474693,86.371429 42.027119,85.763199 40.429131,85.054840 
	C37.165615,83.608192 34.118362,81.673676 30.987394,79.943069 
	C30.489914,80.836517 30.153067,81.154953 30.200237,81.399239 
	C31.075373,85.931396 43.200527,91.514511 47.151684,89.240387 
	C57.109894,83.508858 67.068626,77.778191 77.040222,72.070038 
	C78.033150,71.501656 79.115959,71.090302 81.039391,71.363159 
	C80.056885,72.540489 79.299583,74.097015 78.056366,74.835388 
	C67.748383,80.957642 57.431675,87.077965 46.899910,92.798050 
	C45.150249,93.748344 42.126667,93.318497 40.076817,92.527985 
	C36.877045,91.293991 34.006435,89.206459 30.016191,88.078346 
	C30.439867,89.223869 30.749556,90.432854 31.336628,91.487427 
	C31.618521,91.993797 32.486267,92.136818 32.984005,92.565842 
	C39.817883,98.456444 46.319893,99.259560 54.013237,93.243202 
	C60.252697,88.363815 67.669121,84.985542 74.583199,80.975403 
	C76.364883,79.942032 78.220657,79.036400 80.042404,78.072090 
	C80.369843,78.479240 80.697289,78.886398 81.024734,79.293556 
	C80.074638,80.310593 79.296944,81.619087 78.147461,82.299049 
	C67.971764,88.318382 57.679756,94.142235 47.540588,100.221443 
	C44.725883,101.909073 42.703091,101.214996 39.794964,100.154251 
	C29.089773,96.249527 25.380732,89.175591 26.801432,77.985199 
	C27.780043,70.276993 27.136612,62.340187 26.922735,54.513626 
	C26.827721,51.036713 28.026478,48.913986 31.145517,47.424831 
	C34.095119,46.016575 36.833103,44.165085 39.824543,42.414696 
	C39.264725,41.659760 39.056377,41.052780 38.703644,40.952213 
	C33.710392,39.528511 23.036625,47.433350 23.020967,52.576145 
	C22.989002,63.074814 23.010992,73.573654 23.010771,84.072418 
	C23.010733,85.815742 23.010763,87.559074 23.010763,89.302399 
	C22.640526,89.397858 22.270287,89.493317 21.900049,89.588776 
	C21.330214,88.945641 20.760378,88.302513 20.139055,87.235733 
M46.984749,45.439144 
	C45.289539,45.199257 43.313042,44.269588 41.943420,44.828110 
	C30.521940,49.485710 29.774426,50.686867 30.016787,63.131725 
	C30.052866,64.984390 30.325230,67.396866 31.482241,68.570366 
	C38.263302,75.448082 44.204647,75.973335 52.601677,70.939255 
	C53.598282,70.341782 54.795471,69.957672 55.581284,69.160713 
	C56.547291,68.181000 57.679379,66.950119 57.876980,65.692284 
	C59.720173,53.959553 58.620663,51.867786 48.077721,46.031502 
	C47.932465,45.951092 47.782078,45.879948 46.984749,45.439144 
z"/>
<path fill="#EBE8EE" opacity="1.000000" stroke="none" 
	d="
M172.296326,58.922852 
	C172.389221,65.974304 172.389221,72.609238 172.389221,78.929260 
	C174.324829,79.952950 175.674088,80.666534 177.023346,81.380119 
	C176.894165,81.781898 176.764984,82.183685 176.635803,82.585464 
	C172.089844,82.585464 167.543869,82.585464 164.071442,82.585464 
	C164.950317,79.293526 166.297546,76.140266 166.532791,72.906120 
	C166.856140,68.460732 166.557800,63.932163 166.113892,59.480312 
	C165.722168,55.552071 163.433777,52.965900 159.202332,53.167278 
	C154.685852,53.382225 151.815308,56.459332 151.758987,60.705410 
	C151.730316,62.867275 151.408081,65.098503 151.821701,67.178436 
	C152.827606,72.236809 148.355499,78.563278 155.218613,82.664169 
	C150.777557,82.664169 146.336487,82.664169 142.850723,82.664169 
	C143.724121,79.510307 145.201233,76.513176 145.278549,73.480362 
	C145.566025,62.203564 145.393204,50.915028 145.393204,39.441292 
	C143.926849,39.146645 142.559540,38.871895 141.192230,38.597149 
	C141.084473,38.156132 140.976715,37.715118 140.868958,37.274101 
	C144.227448,36.220413 147.585922,35.166721 151.549194,33.923286 
	C151.549194,40.414429 151.549194,46.480492 151.549194,51.313400 
	C157.078964,51.174206 162.289093,50.286747 167.116837,51.272366 
	C169.217117,51.701153 170.531906,55.977459 172.296326,58.922852 
z"/>
<path fill="#EBE8EE" opacity="1.000000" stroke="none" 
	d="
M293.462769,76.546631 
	C293.431305,70.779427 293.521179,65.447601 293.212189,60.138996 
	C292.972229,56.015720 290.859833,53.076988 286.346466,53.153263 
	C281.699188,53.231800 278.792267,56.471844 278.756805,61.082111 
	C278.738861,63.415169 278.509277,65.779785 278.803772,68.075172 
	C279.422424,72.897026 276.075928,78.726540 282.230774,82.626556 
	C277.790894,82.626556 273.351013,82.626556 270.027954,82.626556 
	C270.825500,79.384125 272.203339,76.212402 272.285339,73.007530 
	C272.566437,62.015739 272.393250,51.012325 272.393250,39.651676 
	C271.076721,39.284637 269.629059,38.881035 268.181366,38.477436 
	C268.070801,38.063965 267.960205,37.650490 267.849609,37.237019 
	C271.114197,36.223198 274.378784,35.209381 278.398804,33.960957 
	C278.398804,40.284279 278.398804,46.441967 278.398804,52.617966 
	C282.053436,51.606930 284.993561,50.308151 288.021088,50.055092 
	C294.725647,49.494694 298.254639,52.032211 299.113251,58.679375 
	C299.983582,65.417374 299.858307,72.283974 300.175049,79.224823 
	C301.303528,79.957649 302.676819,80.849472 304.050110,81.741287 
	C303.893127,82.063705 303.736145,82.386131 303.579163,82.708557 
	C299.056610,82.708557 294.534027,82.708557 289.966736,82.708557 
	C291.225616,80.619949 292.318970,78.805977 293.462769,76.546631 
z"/>
<path fill="#EFEDF1" opacity="1.000000" stroke="none" 
	d="
M371.242950,83.034340 
	C368.966400,83.034317 367.153290,83.034317 364.089691,83.034317 
	C365.293304,80.592888 365.963226,78.721672 367.042175,77.127190 
	C375.024170,65.330956 383.087616,53.589825 391.660889,41.048092 
	C385.738983,41.048092 380.815704,40.924564 375.901764,41.086433 
	C371.831909,41.220497 369.609558,43.626965 368.865692,47.571716 
	C368.573822,49.119587 368.045441,50.622871 367.624786,52.146461 
	C367.166382,52.050865 366.707977,51.955273 366.249573,51.859676 
	C366.249573,47.426350 366.249573,42.993023 366.249573,38.328476 
	C377.074860,38.328476 387.641693,38.328476 400.030487,38.328476 
	C390.553406,52.636467 381.735687,65.948982 372.412628,80.024445 
	C377.968231,80.024445 383.170929,80.118683 388.368774,80.000313 
	C394.706055,79.856003 394.692749,73.298920 398.433655,70.148293 
	C398.433655,74.306656 398.433655,78.465027 398.433655,83.034363 
	C389.286865,83.034363 380.496643,83.034363 371.242950,83.034340 
z"/>
<path fill="#EEEBF0" opacity="1.000000" stroke="none" 
	d="
M260.698792,52.467590 
	C258.798462,44.549049 255.355515,40.586006 249.858292,39.972187 
	C242.666763,39.169182 236.932419,42.318275 233.882034,49.244881 
	C230.798569,56.246620 230.549545,63.471371 233.756134,70.529610 
	C238.778793,81.585327 250.913544,84.218719 260.271057,76.441238 
	C261.434174,75.474518 262.772369,74.718452 264.029449,73.864777 
	C264.312988,74.189034 264.596527,74.513283 264.880066,74.837540 
	C264.413086,75.624977 264.059204,76.512878 263.462250,77.184792 
	C254.354156,87.436218 236.402695,86.243584 228.688599,74.900299 
	C219.579483,61.505703 225.941208,41.638142 240.814285,37.677128 
	C244.094757,36.803474 247.744888,36.897583 251.182053,37.143425 
	C255.100937,37.423729 258.971985,38.372490 263.575409,39.151093 
	C263.575409,42.551342 263.677948,46.831898 263.458801,51.095924 
	C263.427826,51.698009 261.827545,52.219444 260.698792,52.467590 
z"/>
<path fill="#EEEBF0" opacity="1.000000" stroke="none" 
	d="
M104.761513,42.746178 
	C110.509995,37.085861 117.324455,36.307568 124.487335,37.141071 
	C128.225754,37.576092 131.913086,38.450073 136.236252,39.237385 
	C136.236252,42.932106 136.236252,47.659733 136.236252,53.918709 
	C134.763901,52.367268 133.492310,51.642464 133.232147,50.651997 
	C131.710297,44.858036 128.762222,40.578335 122.334572,39.978493 
	C115.377419,39.329235 110.100960,42.291115 107.077812,48.818733 
	C103.779106,55.941330 103.483665,63.330017 106.774109,70.562065 
	C111.801460,81.611633 123.952850,84.209198 133.307739,76.409904 
	C134.455978,75.452591 135.792633,74.721260 138.110764,73.169952 
	C134.449463,83.776550 117.425690,86.822456 108.468491,81.319725 
	C95.810493,73.543472 93.824661,55.486320 104.761513,42.746178 
z"/>
<path fill="#EBE8EE" opacity="1.000000" stroke="none" 
	d="
M451.626587,58.496395 
	C451.611542,65.601173 451.611542,72.256638 451.611542,79.056564 
	C452.780609,79.854271 454.140137,80.781952 455.499664,81.709625 
	C455.348785,82.048470 455.197876,82.387306 455.046997,82.726151 
	C450.640991,82.726151 446.235016,82.726151 440.961334,82.726151 
	C447.497131,78.185844 444.698120,71.892792 445.190399,66.333359 
	C445.497467,62.865788 445.247467,59.348888 445.247467,55.488003 
	C444.210114,55.278030 443.005676,55.298759 442.148743,54.763344 
	C441.619629,54.432743 441.166595,52.951618 441.461761,52.510689 
	C442.662537,50.716675 450.751038,50.832462 452.180237,52.710232 
	C452.702454,52.456654 453.266968,52.176174 453.836761,51.906792 
	C464.804718,46.721573 471.816589,50.720482 472.513641,62.793362 
	C472.829254,68.259018 472.567200,73.758026 472.567200,79.174820 
	C473.997345,79.982918 475.317505,80.728874 476.637695,81.474823 
	C476.503998,81.861794 476.370300,82.248756 476.236603,82.635727 
	C471.747803,82.635727 467.259003,82.635727 462.959137,82.635727 
	C468.661591,74.432945 466.504211,65.565704 464.757599,56.928719 
	C464.439575,55.355999 461.019501,52.998173 459.624756,53.350624 
	C456.751617,54.076672 454.279022,56.388027 451.626587,58.496395 
z"/>
<path fill="#EDEAEF" opacity="1.000000" stroke="none" 
	d="
M325.297180,50.096756 
	C331.097107,51.862808 332.504883,56.113556 332.571960,61.104870 
	C332.652496,67.096626 332.591003,73.090279 332.591003,79.137672 
	C334.054779,79.937172 335.617615,80.790779 337.180450,81.644394 
	C336.958588,82.313370 336.736725,82.982346 336.514893,83.651321 
	C333.105316,82.862762 329.707581,82.014046 326.275848,81.338005 
	C325.614532,81.207726 324.795197,81.697113 324.092590,82.001740 
	C323.028137,82.463257 322.041626,83.126541 320.953094,83.506897 
	C315.371857,85.457130 309.175232,83.535553 307.384125,79.359245 
	C305.424042,74.788918 308.003204,69.769127 314.179688,67.304733 
	C317.812256,65.855347 321.786316,65.261848 326.002808,64.181953 
	C326.002808,62.228542 326.240784,59.765884 325.945618,57.368866 
	C325.528503,53.981098 323.340729,52.622166 319.942871,52.917217 
	C316.871033,53.183960 314.385101,53.600540 314.739471,57.792938 
	C314.819489,58.739471 312.602081,59.880215 311.442200,60.931553 
	C310.616272,59.387791 308.818024,57.594273 309.138916,56.345116 
	C310.299255,51.828083 314.385742,50.702229 318.401306,50.073139 
	C320.513062,49.742302 322.721130,50.026245 325.297180,50.096756 
M324.698090,67.950706 
	C321.745178,68.893021 318.347534,69.240334 316.001282,70.994164 
	C314.523468,72.098808 313.907623,75.441940 314.295013,77.522064 
	C314.504791,78.648491 317.637390,79.949516 319.438385,79.930550 
	C325.706879,79.864555 327.470154,76.214035 324.698090,67.950706 
z"/>
<path fill="#F1EFF3" opacity="1.000000" stroke="none" 
	d="
M434.401855,57.748035 
	C437.963104,64.823860 437.291840,71.312195 433.076172,77.429085 
	C428.732941,83.731071 420.708557,85.911552 413.553131,82.911057 
	C406.341553,79.887001 402.661041,72.474182 404.130859,63.933983 
	C405.473419,56.133339 411.691772,50.357498 418.872772,49.941036 
	C425.458801,49.559082 430.522339,52.010448 434.401855,57.748035 
M417.400085,80.581894 
	C422.147308,81.961464 426.083984,81.074318 427.945343,76.080551 
	C430.373169,69.567116 430.117310,62.972359 426.809631,56.844254 
	C423.702850,51.088341 416.469940,51.264545 413.115906,56.921139 
	C409.038452,63.797794 410.729858,74.678085 417.400085,80.581894 
z"/>
<path fill="#F0EEF2" opacity="1.000000" stroke="none" 
	d="
M486.223633,80.911118 
	C477.984772,72.457710 478.228790,59.990036 486.574219,53.303867 
	C491.397705,49.439426 496.928131,48.690247 502.519501,51.114021 
	C508.056641,53.514286 509.977173,58.337090 509.851685,64.931381 
	C506.193634,64.931381 502.622498,64.931381 499.051331,64.931381 
	C495.408051,64.931381 491.764740,64.931381 486.961945,64.931381 
	C488.009369,69.084953 488.454254,72.857224 489.928314,76.171791 
	C491.659698,80.064903 495.385101,81.753281 499.491302,80.558167 
	C502.946167,79.552635 506.116028,77.567940 509.684570,75.888435 
	C507.309814,84.121284 495.758514,86.520164 486.223633,80.911118 
M500.335999,53.981689 
	C493.141388,51.310051 488.935303,53.991299 488.203583,61.732792 
	C493.128082,61.732792 498.048157,61.732792 503.825012,61.732792 
	C502.732422,58.996845 501.840149,56.762440 500.335999,53.981689 
z"/>
<path fill="#EBE8ED" opacity="1.000000" stroke="none" 
	d="
M221.694611,77.386505 
	C219.892365,79.610390 218.251434,82.210167 215.907288,83.306999 
	C209.478271,86.315117 203.755051,82.434921 203.241806,74.830475 
	C202.884491,69.536316 203.136307,64.200966 203.118530,58.884018 
	C203.113602,57.412315 203.117752,55.940575 203.117752,54.220467 
	C201.499832,54.028824 200.079727,53.860607 197.107483,53.508541 
	C199.970963,51.052662 202.159561,49.514847 203.906265,47.578426 
	C205.526596,45.782093 206.674973,43.560024 208.031158,41.525421 
	C208.491928,41.782238 208.952698,42.039055 209.413467,42.295868 
	C209.535873,45.040562 209.658279,47.785259 209.803085,51.032150 
	C213.344696,51.032150 216.748154,51.032150 221.396957,51.032150 
	C217.780777,55.888569 213.314392,52.593620 209.758789,54.700241 
	C209.758789,61.014675 209.472946,67.769836 209.847504,74.488182 
	C210.157867,80.055199 213.304855,81.227081 217.951874,78.130882 
	C218.941208,77.471710 220.330231,77.412399 221.694611,77.386505 
z"/>
<path fill="#F3F1F4" opacity="1.000000" stroke="none" 
	d="
M353.963165,53.922783 
	C351.264862,53.695724 349.721436,53.911003 349.865601,56.941631 
	C350.110748,62.094460 349.632751,67.293045 350.069275,72.420418 
	C350.274323,74.828865 351.324921,78.217255 353.057404,79.121910 
	C354.531097,79.891441 357.532715,77.737038 359.857208,76.873260 
	C360.280304,76.716026 360.697968,76.544197 361.369690,76.280266 
	C361.681549,76.968040 362.269562,77.645920 362.116425,78.022141 
	C360.435364,82.152649 355.976440,84.552017 351.118256,83.996460 
	C346.251923,83.439964 344.171143,80.084686 343.980957,75.768585 
	C343.673615,68.791985 343.898346,61.791943 343.898346,54.497505 
	C342.258301,54.160141 340.716736,53.843033 338.535706,53.394382 
	C342.154205,49.321575 345.514648,45.539219 349.770630,40.748882 
	C349.770630,44.941795 349.770630,47.680420 349.770630,51.040871 
	C353.680725,51.040871 357.227844,51.040871 360.774963,51.040871 
	C360.848907,51.737434 360.922852,52.434002 360.996796,53.130566 
	C358.808136,53.394600 356.619476,53.658630 353.963165,53.922783 
z"/>
<path fill="#F0EEF2" opacity="1.000000" stroke="none" 
	d="
M190.865829,64.008415 
	C190.865829,69.314499 190.865829,74.123848 190.865829,79.066750 
	C192.124451,79.892487 193.492157,80.789803 194.859879,81.687111 
	C194.707642,82.013618 194.555420,82.340118 194.403183,82.666626 
	C189.939697,82.666626 185.476212,82.666626 181.922073,82.666626 
	C182.866379,79.499428 184.328552,76.527985 184.541260,73.469643 
	C184.953171,67.547050 184.661667,61.575531 184.661667,55.711742 
	C182.974167,55.050182 181.513672,54.477615 180.053192,53.905048 
	C180.109528,53.498707 180.165863,53.092365 180.222214,52.686024 
	C183.554565,51.771503 186.886932,50.856979 190.865829,49.765022 
	C190.865829,54.671185 190.865829,59.091434 190.865829,64.008415 
z"/>
<path fill="#EEEBF0" opacity="1.000000" stroke="none" 
	d="
M187.887527,44.015049 
	C186.313599,42.456532 184.703293,41.018021 184.109818,39.240089 
	C183.882629,38.559444 185.861420,36.399982 187.051041,36.200027 
	C188.214844,36.004417 190.331039,37.134895 190.834930,38.231873 
	C191.982117,40.729290 191.300583,43.052193 187.887527,44.015049 
z"/>
<path fill="#2A0945" opacity="1.000000" stroke="none" 
	d="
M47.309418,45.621811 
	C47.782078,45.879948 47.932465,45.951092 48.077721,46.031502 
	C58.620663,51.867786 59.720173,53.959553 57.876980,65.692284 
	C57.679379,66.950119 56.547291,68.181000 55.581284,69.160713 
	C54.795471,69.957672 53.598282,70.341782 52.601677,70.939255 
	C44.204647,75.973335 38.263302,75.448082 31.482241,68.570366 
	C30.325230,67.396866 30.052866,64.984390 30.016787,63.131725 
	C29.774426,50.686867 30.521940,49.485710 41.943420,44.828110 
	C43.313042,44.269588 45.289539,45.199257 47.309418,45.621811 
z"/>
<path fill="#2E0E48" opacity="1.000000" stroke="none" 
	d="
M325.141510,68.011017 
	C327.470154,76.214035 325.706879,79.864555 319.438385,79.930550 
	C317.637390,79.949516 314.504791,78.648491 314.295013,77.522064 
	C313.907623,75.441940 314.523468,72.098808 316.001282,70.994164 
	C318.347534,69.240334 321.745178,68.893021 325.141510,68.011017 
z"/>
<path fill="#2E0E48" opacity="1.000000" stroke="none" 
	d="
M417.063477,80.365570 
	C410.729858,74.678085 409.038452,63.797794 413.115906,56.921139 
	C416.469940,51.264545 423.702850,51.088341 426.809631,56.844254 
	C430.117310,62.972359 430.373169,69.567116 427.945343,76.080551 
	C426.083984,81.074318 422.147308,81.961464 417.063477,80.365570 
z"/>
<path fill="#2F0F48" opacity="1.000000" stroke="none" 
	d="
M500.641907,54.254860 
	C501.840149,56.762440 502.732422,58.996845 503.825012,61.732792 
	C498.048157,61.732792 493.128082,61.732792 488.203583,61.732792 
	C488.935303,53.991299 493.141388,51.310051 500.641907,54.254860 
z"/>
</svg>